<?xml version="1.0" encoding="UTF-8" standalone="no"?>
<!-- Created with Inkscape (http://www.inkscape.org/) -->

<svg
   xmlns:dc="http://purl.org/dc/elements/1.1/"
   xmlns:cc="http://creativecommons.org/ns#"
   xmlns:rdf="http://www.w3.org/1999/02/22-rdf-syntax-ns#"
   xmlns:svg="http://www.w3.org/2000/svg"
   xmlns="http://www.w3.org/2000/svg"
   xmlns:sodipodi="http://sodipodi.sourceforge.net/DTD/sodipodi-0.dtd"
   xmlns:inkscape="http://www.inkscape.org/namespaces/inkscape"
   id="svg2"
   version="1.1"
   inkscape:version="0.48.1 r9760"
   width="241.65353"
   height="241.65353"
   sodipodi:docname="def.svg">
  <metadata
     id="metadata8">
    <rdf:RDF>
      <cc:Work
         rdf:about="">
        <dc:format>image/svg+xml</dc:format>
        <dc:type
           rdf:resource="http://purl.org/dc/dcmitype/StillImage" />
        <dc:title />
      </cc:Work>
    </rdf:RDF>
  </metadata>
  <defs
     id="defs6" />
  <sodipodi:namedview
     pagecolor="#ffffff"
     bordercolor="#666666"
     borderopacity="1"
     objecttolerance="10"
     gridtolerance="10"
     guidetolerance="10"
     inkscape:pageopacity="0"
     inkscape:pageshadow="2"
     inkscape:window-width="1366"
     inkscape:window-height="744"
     id="namedview4"
     showgrid="false"
     inkscape:zoom="2.28125"
     inkscape:cx="99.275841"
     inkscape:cy="115.8526"
     inkscape:window-x="0"
     inkscape:window-y="24"
     inkscape:window-maximized="1"
     inkscape:current-layer="svg2"
     units="cm" />
  <path
     inkscape:connector-curvature="0"
     id="path2995-7"
     d="m 128.45215,238.5124 -7.45953,-0.2608 -6.22338,-0.1974 -5.21376,-1.7633 -2.16301,-3.2107 c 0,0 -8.581175,-29.44481 -10.847185,-29.88121 -1.026,-0.1976 -5.0619,2.1783 -9.48279,5.5825 -15.76543,12.1398 -17.40164,13.24071 -19.67954,13.24071 -2.29752,0 -15.1281,-8.05671 -19.95569,-12.53071 -4.32167,-4.0052 -4.17869,-6.193 1.43514,-21.9594 2.85506,-8.0184 4.91137,-15.3077 4.56959,-16.1983 -0.55018,-1.43379 -2.41093,-1.54959 -16.22922,-1.0099 -16.52825,0.6455 -20.19906,-0.03 -21.82251,-4.01469 -2.57322,-6.3162 -6.51434,-19.04541 -6.51434,-21.04041 0,-4.1414 1.68248,-5.8573 13.78975,-14.0632 13.82051,-9.36709 15.00822,-10.51699 13.16122,-12.74249 -0.71165,-0.8575 -6.64501,-5.21491 -13.18524,-9.68311 -12.1858,-8.3252 -13.76573,-9.925099 -13.76573,-13.939589 0,-3.470801 5.88872,-20.459501 7.99076,-23.053001 1.7992,-2.2199 2.17801,-2.2584 18.91888,-1.9238 14.68274,0.2935 17.16611,0.1247 17.67497,-1.2013 0.32562,-0.8486 -1.75618,-8.3054 -4.62622,-16.5707 -6.34154,-18.2628 -6.33406,-18.3024 4.99148,-26.411 9.50056,-6.8019 12.2121,-8.099 15.22639,-7.2837 1.27806,0.3457 7.72374,4.8872 14.32374,10.0921 6.6,5.2049 12.50791,9.4791 13.12868,9.4983 1.45237,0.045 2.5142,-2.719 6.901955,-17.9651 4.87163,-16.9274899 4.95894,-16.9999899 20.46937,-16.9999899 15.71136,0 15.46229,-0.2272 21.04789,19.1955899 2.36378,8.2195 4.83061,14.9275 5.59778,15.2219 1.19395,0.4582 11.28732,-6.5852 22.33217,-15.584 5.32427,-4.3379 8.86459,-3.8608 17.39985,2.3448 10.7914,7.8459 12.62067,9.7656 12.634,13.2588 0.006,1.6846 -2.07234,9.0107 -4.61949,16.2803 -2.54714,7.2696 -4.35157,13.9461 -4.00984,14.8366 0.54428,1.4184 2.59219,1.5774 16.51349,1.2826 14.38403,-0.3047 16.08781,-0.1597 17.95372,1.5282 1.94099,1.7557 9.15043,21.2575 9.15043,24.752201 0,2.95299 -3.77095,6.469789 -15.47025,14.427389 -7.4578,5.07261 -11.48874,8.43001 -11.29969,9.41171 0.29029,1.5073 2.10616,2.9477 16.73468,13.27429 11.1654,7.882 11.28821,8.2843 6.7433,22.09341 -2.13928,6.4999 -4.65151,12.2191 -5.8389,13.2924 -1.85995,1.68119 -3.82013,1.88379 -18.22661,1.88379 l -16.14253,0 0.26535,4.2251 c 0.14594,2.3239 2.05344,9.0739 4.23888,15.0001 2.18543,5.9261 3.97853,11.9281 3.98465,13.3377 0.0129,2.9743 -2.51817,5.5411 -12.62857,12.8065 -10.18813,7.32121 -11.02223,7.19451 -25.46755,-3.8694 -6.46285,-4.95 -12.44178,-9 -13.28651,-9 -2.05359,0 -2.70865,1.5065 -6.63428,15.2577 -2.38413,8.35151 -3.2164,12.51781 -3.2164,12.51781 l -0.94213,2.7488 -0.95143,2.0812 -3.71823,1.9896 z m 3.77735,-75.9791 c 17.00923,-3.6037 29.91936,-17.29511 32.82124,-34.8074 3.05158,-18.41571 -7.03442,-38.0857 -23.44406,-45.7214 -23.80986,-11.079 -50.386985,0.2711 -58.774705,25.10059 -1.78028,5.27 -2.09944,8.11521 -1.78554,15.91711 0.32605,8.10359 0.84698,10.49079 3.54399,16.24069 4.03148,8.595 11.30375,15.94171 19.643085,19.84411 10.46525,4.8973 17.17632,5.7186 27.99599,3.4263 z"
     style="fill:#214478"
     sodipodi:nodetypes="cccccssssssssssssssssssssssssssscssssssssssscssssssscccccssssssss" />
  <path
     inkscape:connector-curvature="0"
     id="path2991-7"
     d="m 113.13901,235.9094 c -3.97623,-1.1489 -4.05026,-1.2999 -8.77418,-17.88721 -5.144775,-18.0651 -6.715725,-19.7111 -13.521065,-14.1665 -12.73789,10.3782 -21.2615,16.1665 -23.8059,16.1665 -1.70143,0 -5.26253,-1.7882 -9.22186,-4.6308 -9.20486,-6.6087 -11.95008,-9.4005 -11.95008,-12.1527 0,-1.3251 2.31365,-8.8976 5.14145,-16.8279 5.002,-14.0275 5.09216,-14.473 3.32406,-16.42669 -1.72492,-1.906 -2.61225,-1.9743 -17.43698,-1.3405 -11.07555,0.4735 -16.24837,0.3313 -17.78099,-0.4889 -2.36669,-1.2667 -8.24754,-17.71871 -8.24754,-23.07311 0,-3.717 0.67957,-4.358 14.97006,-14.12109 6.53716,-4.4661 12.12907,-8.7542 12.42646,-9.5292 1.03136,-2.6877 -0.62904,-4.3406 -12.61765,-12.56071 -6.62718,-4.544 -12.66355,-8.875999 -13.41415,-9.626599 -2.06726,-2.0672 -1.66363,-5.96229 1.62647,-15.695791 3.02552,-8.9506 5.21305,-12.526 7.6638,-12.526 1.78975,0 1.72188,1.6414 -0.0967,2.3392 -2.30624,0.885 -4.48841,4.92291 -6.54277,12.1066 -2.20103,7.6966 -0.59395,8.754501 1.91873,1.263 0.86117,-2.5675 2.81224,-5.9149 4.3357,-7.4386 2.7453,-2.74559 2.90301,-2.77309 17.74369,-3.0922 20.52519,-0.4413 20.17419,0.1267 12.87217,-20.8304 -2.13718,-6.1339 -3.87368,-11.7589 -3.85889,-12.5 0.0409,-2.0494 4.85883,-7.1012 10.83412,-11.36 4.22888,-3.014 6.2753,-3.821 9.69037,-3.821 3.81785,0 5.46067,0.8504 13.90498,7.1975 5.2666,3.9587 10.68501,7.6193 12.04092,8.1348 4.2999,1.6349 6.890005,-1.9715 10.373645,-14.4436 4.17829,-14.9593 6.09596,-16.9027 17.17503,-17.4059 14.80283,-0.6722 16.36247,0.9249 22.88743,23.4372 3.19552,11.0251 6.18943,11.4288 17.69637,2.3858 15.29535,-12.0201 19.01424,-11.9195 32.60188,0.8819 4.45674,4.1989 5.98202,3.4344 3.24445,-1.626 -2.91953,-5.3968 -12.44568,-12.2398 -18.24587,-13.1068 -4.35888,-0.6515 -4.55943,-0.8014 -2.5547,-1.9096 1.21247,-0.6702 3.00075,-0.8726 4.03968,-0.4572 3.90142,1.5598 19.09514,13.412 19.58251,15.2757 0.28072,1.0735 -1.52185,7.9183 -4.00572,15.2107 -6.15717,18.0769 -6.51279,19.7727 -4.72007,22.5089 1.40469,2.1439 2.09213,2.25 14.5831,2.25 16.41446,0 18.65447,1.02961 21.95921,10.0931 2.10495,5.773 3.89385,8.409701 3.87813,5.7159 -0.0242,-4.1537 -4.24655,-14.47609 -7.14433,-17.4658 -2.45861,-2.5367 -2.83116,-3.3432 -1.5442,-3.3432 0.93289,0 2.50801,0.8118 3.50026,1.8041 2.45958,2.4596 8.50859,21.813901 7.75551,24.814391 -0.3956,1.5762 -4.14171,4.784399 -11.23671,9.622999 -14.72147,10.03971 -15.71695,10.94151 -14.90433,13.50191 0.37868,1.1931 5.37221,5.293 11.37814,9.3419 17.51491,11.80779 17.03771,10.78619 12.10358,25.9122 -4.43692,13.6018 -4.08894,13.4074 -22.54328,12.5966 -13.16131,-0.5782 -15.35335,-0.4549 -16.75034,0.9421 -2.23487,2.23479 -1.30713,7.26519 4.03684,21.88839 3.87666,10.608 4.20591,12.1563 2.9823,14.0237 -1.92461,2.9374 -18.4828,14.5517 -20.74585,14.5517 -1.02531,0 -7.53493,-4.3132 -14.46582,-9.5849 -10.1303,-7.7052 -13.06575,-9.4684 -14.96825,-8.9909 -2.49416,0.626 -2.41914,0.4323 -8.93171,23.06181 -1.42235,4.9422 -2.96489,9.3647 -3.42787,9.8277 -2.4624,2.4624 -18.26817,3.4647 -24.81322,1.5735 z m 25.72692,-71.7685 c 10.88374,-4.1644 20.72834,-13.96281 25.23715,-25.11871 1.87997,-4.6515 2.22599,-7.4285 2.24288,-17.99999 0.0192,-12.02561 -0.1023,-12.75821 -3.20164,-19.30161 -4.34833,-9.18039 -12.99458,-17.78309 -21.99677,-21.88599 -5.49103,-2.50259 -8.49438,-3.18039 -15.78162,-3.5614 -10.54167,-0.5511 -18.39789,1.58301 -27.106625,7.3635 -23.01959,15.279591 -26.11917,50.37399 -6.20769,70.2854 5.18715,5.1872 14.150945,10.4741 20.432055,12.051 6.14372,1.5425 20.0947,0.5736 26.38226,-1.8322 z M 46.404595,38.8306 c -0.3893,-0.9304 -0.55217,-2.4998 -0.36194,-3.4876 0.52103,-2.7055 17.77573,-15.2643 21.01425,-15.2952 4.22767,-0.04 4.18742,1.6583 -0.0554,2.3367 -4.18118,0.6686 -14.34539,7.0645 -16.8032,10.5735 -0.84819,1.2109 -1.88952,3.4083 -2.31405,4.883 -0.63253,2.1971 -0.89968,2.3758 -1.4797,0.9896 z M 108.86593,8.6299002 c 0,-0.74949 0.59214,-1.85429 1.31586,-2.45489 3.46142,-2.8727 24.20211,-2.492 27.19328,0.4992 2.61598,2.61599 1.60221,3.3864898 -1.75914,1.337 -4.6608,-2.8417 -18.8392,-2.8417 -23.5,0 -2.44088,1.48829 -3.25,1.64229 -3.25,0.61869 z"
     style="fill:#87aade" />
  <path
     inkscape:connector-curvature="0"
     id="path2989-2"
     d="m 113.07685,235.8933 c -3.89283,-1.1227 -4.08878,-1.5312 -8.8111,-18.37111 -2.00505,-7.15 -4.05609,-13.7875 -4.557865,-14.75 -1.43868,-2.7596 -4.74345,-2.0687 -10.25109,2.1431 -2.79998,2.1413 -8.39174,6.4163 -12.42613,9.5 -4.87462,3.7261 -8.27402,5.6069 -10.13375,5.6069 -4.01986,0 -20.42595,-12.6194 -20.81874,-16.0135 -0.15827,-1.3676 1.97829,-8.5615 4.74791,-15.9865 2.76961,-7.425 5.0366,-14.4225 5.03775,-15.55 0.004,-4.06479 -1.62764,-4.44929 -18.94791,-4.46529 -9.1025,-0.01 -17.15711,-0.4001 -17.89914,-0.8703 -1.37491,-0.8713 -7.15086,-18.83671 -7.15086,-22.24191 0,-1.7941 1.45616,-1.8725 34.78023,-1.8725 l 34.78024,0 3.96976,5.5597 c 16.065855,22.5005 48.307215,25.8364 69.014875,7.14081 2.72519,-2.4604 6.0799,-6.31251 7.4549,-8.56011 l 2.5,-4.0866 35.25,-0.027 c 19.3875,-0.015 35.25,0.3115 35.25,0.7252 0,2.0481 -6.0658,21.62221 -7.07869,22.84271 -0.9124,1.0994 -4.67603,1.4085 -17.29375,1.4205 -8.87016,0.01 -16.75724,0.414 -17.52684,0.9013 -2.21573,1.40289 -0.68579,10.14199 3.8661,22.08339 2.20135,5.775 4.00936,11.4773 4.01781,12.6718 0.0113,1.5947 -2.5361,4.0527 -9.58651,9.25 -5.28103,3.893 -10.41766,7.0782 -11.41474,7.0782 -0.99707,0 -5.11373,-2.5231 -9.14812,-5.6069 -4.03439,-3.0837 -9.62615,-7.3587 -12.42613,-9.5 -5.53262,-4.2309 -8.80025,-4.8993 -10.29527,-2.1059 -0.52608,0.983 -2.79548,8.2766 -5.04312,16.208 -2.24765,7.93141 -4.47803,14.81211 -4.95642,15.29051 -2.49944,2.4994 -18.25572,3.5025 -24.9034,1.5854 z"
     style="fill:#2c5aa0" />
</svg>
