<?xml version="1.0" encoding="UTF-8" standalone="no"?>
<!-- Created with Inkscape (http://www.inkscape.org/) -->

<svg
   xmlns:svg="http://www.w3.org/2000/svg"
   xmlns="http://www.w3.org/2000/svg"
   version="1.1"
   width="200"
   height="85"
   id="svg4082">
  <defs
     id="defs4084" />
  <g
     transform="translate(-315.73829,-603.43269)"
     id="layer1">
    <path
       d="m 336.03715,607.13785 c -0.79538,-0.13125 -1.57563,-0.1625 -2.32963,-0.105 l -10e-4,0 c 0,0 -5.15186,0.35 -5.38625,0.36875 -4.7026,0.37625 -8.27247,4.2425 -8.27247,9.5825 l 0,62.96625 5.26612,4.91 52.92288,-8.895 c 3.64212,-0.6325 6.518,-4.9275 6.518,-9.56625 l 0,-51.275 -48.71725,-7.98625"
       id="path24"
       style="fill:#155426;fill-opacity:1;fill-rule:nonzero;stroke:none" />
    <path
       d="m 384.75441,666.40035 c 0,4.6375 -2.87588,8.9325 -6.518,9.565 l -52.92288,8.895 0,-68.21 c 0,-6.20375 4.95125,-10.46375 10.72363,-9.5125 l 48.71725,7.98625 0,51.27625"
       id="path26"
       style="fill:#7cc14f;fill-opacity:1;fill-rule:nonzero;stroke:none" />
    <path
       d="m 368.45078,624.0441 4.27337,0.46 0,7.5 4.81011,0.34125 0,4.70375 -4.81011,-0.22 0,17.19375 c 0,1.49625 0.16561,2.45875 0.49662,2.89125 0.29838,0.39625 0.75975,0.59 1.37788,0.59 0.0596,0 0.12163,-10e-4 0.18311,-0.005 0.94676,-0.055 1.97564,-0.345 3.09725,-0.85625 l 0,4.32375 c -1.90625,0.83625 -3.77687,1.33375 -5.61337,1.49125 -0.26612,0.02 -0.52287,0.0312 -0.7715,0.0312 -1.663,0 -2.934,-0.4825 -3.80263,-1.46 -1.01225,-1.1325 -1.51762,-2.95 -1.51762,-5.445 l 0,-19.06 -2.31013,-0.105 0,-5.04125 2.8155,0.2025 1.7715,-7.53625"
       id="path28"
       style="fill:#ffffff;fill-opacity:1;fill-rule:nonzero;stroke:none" />
    <path
       d="m 377.53478,637.0491 -4.81012,-0.22 0,0.10125 2.57762,0.11875 2.2325,0"
       id="path30"
       style="fill:#155426;fill-opacity:1;fill-rule:nonzero;stroke:none" />
    <path
       d="m 373.72566,657.32785 c 0.24511,0.12125 0.53025,0.17625 0.87299,0.17625 0.0596,0 0.12163,-10e-4 0.18311,-0.005 0.94676,-0.055 1.97564,-0.345 3.09725,-0.85625 l -2.2325,0 c -0.67575,0.3075 -1.3105,0.54125 -1.92087,0.685"
       id="path32"
       style="fill:#155426;fill-opacity:1;fill-rule:nonzero;stroke:none" />
    <path
       d="m 367.69153,661.0291 c -1.01225,-1.1325 -1.51763,-2.95 -1.51763,-5.445 l 0,-19.06 -2.31014,-0.105 0,-5.04125 -2.23237,0 0,1.12625 c 0.32225,1.21375 0.57662,2.53 0.76412,3.95 l 1.54638,0.07 0,19.06 c 0,2.495 0.50637,4.3125 1.51812,5.445 0.86863,0.9775 2.13863,1.46 3.80125,1.46 l 2.23288,0 c -1.663,0 -2.934,-0.4825 -3.80263,-1.46 z m 0.75925,-36.985 -2.23251,0 -1.73237,7.37875 2.19338,0.1575 1.7715,-7.53625"
       id="path34"
       style="fill:#155426;fill-opacity:1;fill-rule:nonzero;stroke:none" />
    <path
       d="m 357.26477,668.6091 c 0.29925,0 0.61963,-0.0188 0.96088,-0.0575 l -1.79438,0 c 0.25,0.0387 0.5385,0.0575 0.8335,0.0575"
       id="path36"
       style="fill:#155426;fill-opacity:1;fill-rule:nonzero;stroke:none" />
    <path
       d="m 353.87603,656.14285 c 0.873,-2.24375 1.30374,-6.6475 1.30374,-13.2175 0,-5.89625 -0.42676,-9.9525 -1.2935,-12.1775 -0.86712,-2.23625 -2.165,-3.445 -3.90424,-3.5975 -0.13338,-0.0113 -0.26462,-0.0175 -0.39212,-0.0175 -1.61175,0 -2.85113,0.94 -3.71438,2.82875 -0.935,2.05875 -1.40812,6.32375 -1.40812,12.78125 0,6.24125 0.45987,10.66875 1.38612,13.26875 0.87363,2.47625 2.18175,3.7025 3.899,3.7025 0.0761,0 0.15188,-0.002 0.2295,-0.007 1.71974,-0.10875 3.01513,-1.2975 3.894,-3.56375 m 6.67138,1.3925 c -1.52688,3.6025 -3.85789,5.96 -7.04638,7.05125 0.32125,1.65125 0.80763,2.76125 1.45463,3.3475 0.50187,0.45 1.27436,0.675 2.3095,0.675 0.29937,0 0.62012,-0.0188 0.9615,-0.0575 l 0,4.87125 -2.21188,0.29 c -0.65237,0.085 -1.271,0.1275 -1.8565,0.1275 -1.9375,0 -3.50537,-0.47 -4.68462,-1.42 -1.5605,-1.25375 -2.71238,-3.67125 -3.45013,-7.24875 -3.39062,-0.7225 -6.03425,-2.87875 -7.86425,-6.49625 -1.8575,-3.67625 -2.80325,-9.0525 -2.80325,-16.085 0,-7.58125 1.29438,-13.17875 3.83938,-16.7275 2.14837,-2.99375 5.145,-4.4675 8.916,-4.4675 0.6035,0 1.2275,0.0375 1.87062,0.11375 4.43599,0.51125 7.65238,2.60375 9.74513,6.23125 2.05512,3.5475 3.06437,8.63375 3.06437,15.3125 0,6.1175 -0.74362,10.93 -2.24412,14.4825"
       id="path38"
       style="fill:#ffffff;fill-opacity:1;fill-rule:nonzero;stroke:none" />
    <path
       d="m 351.53766,630.74785 c 0.86725,2.225 1.2935,6.28125 1.2935,12.1775 0,6.57 -0.43025,10.97375 -1.30325,13.2175 -0.70263,1.81125 -1.67975,2.93375 -2.918,3.3675 0.35787,0.135 0.73975,0.20375 1.14262,0.20375 0.0761,0 0.15188,-0.002 0.2295,-0.007 1.71974,-0.10875 3.01513,-1.2975 3.894,-3.56375 0.873,-2.24375 1.30374,-6.6475 1.30374,-13.2175 0,-5.89625 -0.42676,-9.9525 -1.2935,-12.1775 -0.86712,-2.23625 -2.165,-3.445 -3.90424,-3.5975 -0.13338,-0.0113 -0.26462,-0.0175 -0.39212,-0.0175 -0.40525,0 -0.78663,0.0588 -1.145,0.17875 l 0,0 c 1.33637,0.415 2.36662,1.5625 3.09275,3.43625 z m -0.86913,42.41125 c -0.0425,-0.0187 -0.084,-0.0388 -0.1255,-0.0588 -0.004,-0.002 -0.008,-0.005 -0.0128,-0.007 -0.038,-0.0188 -0.0761,-0.0375 -0.11375,-0.0575 -0.007,-0.004 -0.0146,-0.008 -0.0224,-0.0113 -0.0342,-0.0187 -0.0684,-0.0362 -0.10212,-0.055 -0.0107,-0.006 -0.0215,-0.0125 -0.0322,-0.0188 -0.0303,-0.0163 -0.0605,-0.0337 -0.0903,-0.0512 -0.0146,-0.008 -0.0284,-0.0163 -0.0425,-0.025 -0.0264,-0.015 -0.0523,-0.0312 -0.0786,-0.0475 -0.0176,-0.01 -0.0346,-0.0213 -0.0518,-0.0325 -0.023,-0.015 -0.0449,-0.0287 -0.0669,-0.0425 -0.0215,-0.0137 -0.0415,-0.0275 -0.0625,-0.0412 -0.0181,-0.0125 -0.0361,-0.025 -0.0548,-0.0375 -0.0244,-0.0162 -0.0478,-0.0337 -0.0722,-0.05 -0.0141,-0.0113 -0.0283,-0.02 -0.0425,-0.0312 -0.0282,-0.02 -0.0566,-0.0412 -0.0849,-0.0625 -0.009,-0.008 -0.0186,-0.0137 -0.0284,-0.0213 -0.0371,-0.0287 -0.0743,-0.0575 -0.11089,-0.0875 -1.56049,-1.25375 -2.71238,-3.67125 -3.45013,-7.24875 -3.39062,-0.7225 -6.03424,-2.87875 -7.86425,-6.49625 -1.8575,-3.67625 -2.80325,-9.0525 -2.80325,-16.085 0,-7.58125 1.29437,-13.17875 3.83937,-16.7275 2.14838,-2.99375 5.145,-4.4675 8.916,-4.4675 0.0122,0 -2.35737,0 -2.35737,0 l 0,10e-4 c -3.76663,0.002 -6.76025,1.475 -8.90675,4.46625 -2.5455,3.54875 -3.83938,9.14625 -3.83938,16.7275 0,7.0325 0.94525,12.40875 2.80275,16.085 1.8305,3.6175 4.47413,5.77375 7.86425,6.49625 0.73775,3.5775 1.88963,5.995 3.45013,7.24875 1.17926,0.95 2.74762,1.42 4.68512,1.42 0.0366,0 0.0743,0 0.11038,-10e-4 l 2.05662,0 c -1.26512,-0.02 -2.36912,-0.245 -3.30574,-0.67875 -8.8e-4,0 -0.002,0 -0.003,-10e-4"
       id="path40"
       style="fill:#155426;fill-opacity:1;fill-rule:nonzero;stroke:none" />
    <path
       d="m 397.66752,635.51535 c -0.59501,0.14125 -1.105,0.2275 -1.76999,0.2275 -3.64162,0 -4.15187,-2.76375 -4.15187,-5.385 0,-2.56375 0.76512,-5.1575 4.19437,-5.1575 0.65125,0 1.105,0.0712 1.7275,0.2275 l 0,1.37375 c -0.595,-0.15625 -0.92,-0.24125 -1.45875,-0.24125 -1.71462,0 -2.04025,1.7575 -2.04025,3.74125 0,2.18125 0.28375,4.08 2.08275,4.08 0.52375,0 0.86374,-0.07 1.41624,-0.2125 l 0,1.34625"
       id="path42"
       style="fill:#7cc14f;fill-opacity:1;fill-rule:nonzero;stroke:none" />
    <path
       d="m 401.16752,628.6866 c -1.25999,0 -1.35874,1.53 -1.35874,2.70625 0,1.20375 0.0563,3.04625 1.35874,3.04625 1.30375,0 1.375,-1.645 1.375,-3.04625 0,-1.09125 -0.17,-2.70625 -1.375,-2.70625 z m 0,7.05625 c -2.76249,0 -3.71125,-1.9 -3.71125,-4.3075 0,-2.38 1.29001,-4.0525 3.74001,-4.0525 2.53624,0 3.69875,1.68625 3.69875,4.10875 0,2.53625 -1.17625,4.25125 -3.72751,4.25125"
       id="path44"
       style="fill:#7cc14f;fill-opacity:1;fill-rule:nonzero;stroke:none" />
    <path
       d="m 409.16003,628.6866 c -1.07626,0 -1.27376,1.3175 -1.27376,2.89 0,1.33125 0.22501,2.8625 1.30251,2.8625 1.21875,0 1.21875,-1.21875 1.21875,-3.00375 0,-1.36125 -0.0712,-2.74875 -1.2475,-2.74875 z m 1.81375,5.85125 c -0.4675,0.68 -1.19,1.205 -2.30875,1.205 -2.59375,0 -3.1175,-2.19625 -3.1175,-4.2225 0,-1.885 0.65125,-4.1375 3.1875,-4.1375 0.62375,0 1.21875,0.15625 1.6575,0.53875 l 0,-3.245 2.28125,0 0,10.9525 -1.37375,0 -0.32625,-1.09125"
       id="path46"
       style="fill:#7cc14f;fill-opacity:1;fill-rule:nonzero;stroke:none" />
    <path
       d="m 418.06002,630.8816 c 0,-1.005 -0.085,-2.195 -1.035,-2.195 -1.02,0 -1.1475,1.19 -1.19,2.195 l 2.225,0 z m 1.89875,4.4925 c -0.7375,0.22625 -1.64375,0.36875 -2.565,0.36875 -2.76249,0 -3.91,-1.5875 -3.91,-4.195 0,-2.2375 1.16125,-4.165 3.62625,-4.165 2.89,0 3.2025,2.45125 3.2025,4.70375 l -4.46375,0 c 0,1.34625 0.46875,2.3525 1.97001,2.3525 0.61,0 1.38875,-0.1425 2.13999,-0.355 l 0,1.29"
       id="path48"
       style="fill:#7cc14f;fill-opacity:1;fill-rule:nonzero;stroke:none" />
    <path
       d="m 423.33129,635.6291 2.29541,0 0,-10.95215 -2.29541,0 0,10.95215 z"
       id="path50"
       style="fill:#7cc14f;fill-opacity:1;fill-rule:nonzero;stroke:none" />
    <path
       d="m 431.01128,630.8816 c 0,-1.005 -0.085,-2.195 -1.03375,-2.195 -1.02,0 -1.14875,1.19 -1.19,2.195 l 2.22375,0 z m 1.89875,4.4925 c -0.7375,0.22625 -1.64375,0.36875 -2.565,0.36875 -2.7625,0 -3.91,-1.5875 -3.91,-4.195 0,-2.2375 1.16125,-4.165 3.62625,-4.165 2.89125,0 3.2025,2.45125 3.2025,4.70375 l -4.4625,0 c 0,1.34625 0.4675,2.3525 1.96875,2.3525 0.61001,0 1.38876,-0.1425 2.14,-0.355 l 0,1.29"
       id="path52"
       style="fill:#7cc14f;fill-opacity:1;fill-rule:nonzero;stroke:none" />
    <path
       d="m 438.79127,628.9841 c -0.5525,-0.185 -1.07624,-0.3125 -1.63,-0.3125 -0.695,0 -1.20374,0.19875 -1.20374,0.87875 0,0.52375 0.41125,0.765 1.21749,1.17625 1.09125,0.5525 1.91377,1.11875 1.91377,2.565 0,1.91125 -1.55876,2.45125 -3.20252,2.45125 -0.73624,0 -1.62875,-0.12875 -2.37999,-0.29875 l 0,-1.36 c 0.70875,0.2125 1.28874,0.36875 1.9275,0.36875 0.73624,0 1.35874,-0.17 1.35874,-1.00625 0,-0.60875 -0.43875,-0.85 -1.24624,-1.28875 -1.0775,-0.58125 -1.87,-1.09125 -1.87,-2.45125 0,-1.715 1.54375,-2.32375 3.01875,-2.32375 0.77875,0 1.45875,0.085 2.09625,0.2825 l 0,1.31875"
       id="path54"
       style="fill:#7cc14f;fill-opacity:1;fill-rule:nonzero;stroke:none" />
    <path
       d="m 444.54379,628.9841 c -0.55251,-0.185 -1.07626,-0.3125 -1.62876,-0.3125 -0.695,0 -1.205,0.19875 -1.205,0.87875 0,0.52375 0.41125,0.765 1.21875,1.17625 1.09125,0.5525 1.91251,1.11875 1.91251,2.565 0,1.91125 -1.55876,2.45125 -3.20252,2.45125 -0.73624,0 -1.62876,-0.12875 -2.37999,-0.29875 l 0,-1.36 c 0.70875,0.2125 1.29,0.36875 1.9275,0.36875 0.73624,0 1.35998,-0.17 1.35998,-1.00625 0,-0.60875 -0.43875,-0.85 -1.24749,-1.28875 -1.07626,-0.58125 -1.87001,-1.09125 -1.87001,-2.45125 0,-1.715 1.54501,-2.32375 3.0175,-2.32375 0.78,0 1.46,0.085 2.0975,0.2825 l 0,1.31875"
       id="path56"
       style="fill:#7cc14f;fill-opacity:1;fill-rule:nonzero;stroke:none" />
    <path
       d="m 446.61378,632.9791 c 0.77875,0 1.38874,0.5525 1.38874,1.375 0,0.82125 -0.60999,1.38875 -1.38874,1.38875 -0.77999,0 -1.375,-0.5675 -1.375,-1.38875 0,-0.8225 0.59501,-1.375 1.375,-1.375"
       id="path58"
       style="fill:#7cc14f;fill-opacity:1;fill-rule:nonzero;stroke:none" />
    <path
       d="m 397.66752,650.23785 c -0.59501,0.1425 -1.105,0.2275 -1.76999,0.2275 -3.64162,0 -4.15187,-2.76375 -4.15187,-5.385 0,-2.56375 0.76512,-5.1575 4.19437,-5.1575 0.65125,0 1.105,0.0713 1.7275,0.22625 l 0,1.375 c -0.595,-0.15625 -0.92,-0.24125 -1.45875,-0.24125 -1.71462,0 -2.04025,1.7575 -2.04025,3.74125 0,2.1825 0.28375,4.08 2.08275,4.08 0.52375,0 0.86374,-0.07 1.41624,-0.21125 l 0,1.345"
       id="path60"
       style="fill:#7cc14f;fill-opacity:1;fill-rule:nonzero;stroke:none" />
    <path
       d="m 400.04878,643.5641 c 0.52499,-1.0475 1.3175,-1.41625 2.45125,-1.41625 0.0987,0 0.2125,0 0.32625,0.015 l 0,1.7275 c -0.19875,-0.0288 -0.41125,-0.0288 -0.6225,-0.0288 -1.14875,0 -1.61625,0.355 -1.61625,1.65875 l 0,4.83125 -2.28125,0 0,-8.13375 1.375,0 0.3675,1.34625"
       id="path62"
       style="fill:#7cc14f;fill-opacity:1;fill-rule:nonzero;stroke:none" />
    <path
       d="m 407.24752,645.6041 c 0,-1.005 -0.085,-2.195 -1.035,-2.195 -1.02,0 -1.1475,1.19 -1.19,2.195 l 2.225,0 z m 1.89875,4.4925 c -0.7375,0.22625 -1.64375,0.36875 -2.565,0.36875 -2.76249,0 -3.91125,-1.5875 -3.91125,-4.195 0,-2.23875 1.16251,-4.165 3.6275,-4.165 2.89,0 3.2025,2.45125 3.2025,4.70375 l -4.46375,0 c 0,1.34625 0.46875,2.3525 1.97001,2.3525 0.60874,0 1.38875,-0.14125 2.13999,-0.355 l 0,1.29"
       id="path64"
       style="fill:#7cc14f;fill-opacity:1;fill-rule:nonzero;stroke:none" />
    <path
       d="m 413.69502,646.54035 c -0.62374,0 -0.935,0.0838 -1.20375,0.25375 -0.36875,0.2275 -0.58125,0.625 -0.58125,1.22 0,0.68 0.26875,1.1475 0.935,1.1475 0.85,0 1.21875,-0.61 1.21875,-1.51625 l 0,-1.105 -0.36875,0 z m 1.275,3.81125 -0.31125,-1.1625 c -0.65125,0.89375 -1.38875,1.27625 -2.48,1.27625 -1.5575,0 -2.5225,-0.85125 -2.5225,-2.40875 0,-2.325 1.95625,-2.6075 4.40751,-2.65 l 0,-0.51 c 0,-0.66625 -0.1275,-0.95 -0.3825,-1.17625 -0.24125,-0.2125 -0.6375,-0.31125 -1.1475,-0.31125 -0.68125,0 -1.44625,0.18375 -2.14,0.39625 l 0,-1.3325 c 0.9075,-0.225 1.885,-0.3675 2.7775,-0.3675 1.785,0 3.1725,0.68 3.1725,2.70625 l 0,5.54 -1.37375,0"
       id="path66"
       style="fill:#7cc14f;fill-opacity:1;fill-rule:nonzero;stroke:none" />
    <path
       d="m 421.73003,650.1816 c -0.6525,0.17 -1.4175,0.28375 -2.08251,0.28375 -1.34625,0 -2.12626,-0.53875 -2.12626,-1.94125 l 0,-5.0025 -0.77875,0 0,-1.30375 0.94876,0 0.61,-2.04 1.51625,0 0,2.04 1.78501,0 0,1.30375 -1.78501,0 0,4.6625 c 0,0.6375 0.0987,0.9775 0.75,0.9775 0.42626,0 0.8075,-0.085 1.16251,-0.18375 l 0,1.20375"
       id="path68"
       style="fill:#7cc14f;fill-opacity:1;fill-rule:nonzero;stroke:none" />
    <path
       d="m 425.99378,645.6041 c 0,-1.005 -0.0838,-2.195 -1.03375,-2.195 -1.01999,0 -1.14751,1.19 -1.19,2.195 l 2.22375,0 z m 1.89875,4.4925 c -0.73624,0.22625 -1.64249,0.36875 -2.56375,0.36875 -2.7625,0 -3.91125,-1.5875 -3.91125,-4.195 0,-2.23875 1.1625,-4.165 3.6275,-4.165 2.89,0 3.2025,2.45125 3.2025,4.70375 l -4.46375,0 c 0,1.34625 0.46875,2.3525 1.96999,2.3525 0.61,0 1.38875,-0.14125 2.13875,-0.355 l 0,1.29"
       id="path70"
       style="fill:#7cc14f;fill-opacity:1;fill-rule:nonzero;stroke:none" />
    <path
       d="m 432.98129,643.4366 c 0.62249,-0.90625 1.38873,-1.33125 2.46499,-1.33125 1.01999,0 1.78501,0.32625 2.19625,1.0625 0.62374,-0.75125 1.33126,-1.0625 2.29501,-1.0625 1.785,0 2.57875,0.99125 2.57875,2.66375 l 0,5.5825 -2.28125,0 0,-5.48375 c 0,-0.8075 -0.1125,-1.45875 -0.935,-1.45875 -1.0475,0 -1.26,1.1325 -1.26,2.05375 l 0,4.88875 -2.29625,0 0,-5.48375 c 0,-0.77875 -0.1275,-1.45875 -0.94875,-1.45875 -1.035,0 -1.2475,1.1325 -1.2475,2.05375 l 0,4.88875 -2.28125,0 0,-8.13375 1.375,0 0.34,1.21875"
       id="path72"
       style="fill:#7cc14f;fill-opacity:1;fill-rule:nonzero;stroke:none" />
    <path
       d="m 446.96753,643.4091 c -1.26125,0 -1.36001,1.53 -1.36001,2.70625 0,1.20375 0.0563,3.04625 1.36001,3.04625 1.30249,0 1.37374,-1.64375 1.37374,-3.04625 0,-1.09125 -0.17,-2.70625 -1.37374,-2.70625 z m 0,7.05625 c -2.76376,0 -3.71251,-1.89875 -3.71251,-4.3075 0,-2.38125 1.29001,-4.0525 3.74126,-4.0525 2.53499,0 3.6975,1.68625 3.6975,4.10875 0,2.53625 -1.17625,4.25125 -3.72625,4.25125"
       id="path74"
       style="fill:#7cc14f;fill-opacity:1;fill-rule:nonzero;stroke:none" />
    <path
       d="m 453.24504,643.5641 c 0.52375,-1.0475 1.31749,-1.41625 2.45125,-1.41625 0.0987,0 0.21249,0 0.32625,0.015 l 0,1.7275 c -0.19875,-0.0288 -0.41126,-0.0288 -0.62375,-0.0288 -1.1475,0 -1.61501,0.355 -1.61501,1.65875 l 0,4.83125 -2.28124,0 0,-8.13375 1.37375,0 0.36875,1.34625"
       id="path76"
       style="fill:#7cc14f;fill-opacity:1;fill-rule:nonzero;stroke:none" />
    <path
       d="m 460.44378,645.6041 c 0,-1.005 -0.085,-2.195 -1.03501,-2.195 -1.02,0 -1.1475,1.19 -1.19,2.195 l 2.22501,0 z m 1.89751,4.4925 c -0.73627,0.22625 -1.6425,0.36875 -2.56376,0.36875 -2.76376,0 -3.91125,-1.5875 -3.91125,-4.195 0,-2.23875 1.16251,-4.165 3.6275,-4.165 2.89001,0 3.20251,2.45125 3.20251,4.70375 l -4.46375,0 c 0,1.34625 0.46749,2.3525 1.96999,2.3525 0.60875,0 1.38876,-0.14125 2.13876,-0.355 l 0,1.29"
       id="path78"
       style="fill:#7cc14f;fill-opacity:1;fill-rule:nonzero;stroke:none" />
    <path
       d="m 464.53877,647.7016 c 0.77875,0 1.38876,0.5525 1.38876,1.375 0,0.82125 -0.61001,1.38875 -1.38876,1.38875 -0.77875,0 -1.37374,-0.5675 -1.37374,-1.38875 0,-0.8225 0.59499,-1.375 1.37374,-1.375"
       id="path80"
       style="fill:#7cc14f;fill-opacity:1;fill-rule:nonzero;stroke:none" />
    <path
       d="m 394.93378,663.70035 c 0.69375,0 1.11874,-0.24125 1.375,-0.56625 0.60874,-0.7375 0.665,-2.14 0.665,-3.34375 0,-1.63 -0.2125,-3.01875 -1.1475,-3.5 -0.24125,-0.1125 -0.4825,-0.18375 -0.99225,-0.18375 l -0.52387,0 0,7.59375 0.62362,0 z m -0.0425,-8.94 c 1.47251,0 2.26626,0.255 2.89,0.7075 1.2325,0.88 1.60125,2.49375 1.60125,4.26625 0,1.84125 -0.35375,3.62625 -1.7,4.59 -0.65125,0.4675 -1.44625,0.75125 -2.97587,0.75125 l -2.73437,0 0,-10.315 2.91899,0"
       id="path82"
       style="fill:#7cc14f;fill-opacity:1;fill-rule:nonzero;stroke:none" />
    <path
       d="m 404.55502,660.3291 c 0,-1.00625 -0.085,-2.19625 -1.03375,-2.19625 -1.02125,0 -1.14875,1.19 -1.19125,2.19625 l 2.225,0 z m 1.89875,4.49125 c -0.7375,0.22625 -1.64375,0.36875 -2.565,0.36875 -2.76249,0 -3.91,-1.5875 -3.91,-4.195 0,-2.23875 1.16125,-4.165 3.6275,-4.165 2.89,0 3.20125,2.45125 3.20125,4.70375 l -4.46249,0 c 0,1.34625 0.46749,2.3525 1.97,2.3525 0.60875,0 1.3875,-0.1425 2.13875,-0.355 l 0,1.29"
       id="path84"
       style="fill:#7cc14f;fill-opacity:1;fill-rule:nonzero;stroke:none" />
    <path
       d="m 409.82627,663.7291 c 0.24125,0.085 0.52499,0.11375 0.83626,0.11375 1.44499,0 1.64375,-1.46 1.64375,-3.01875 0,-1.3875 -0.2125,-2.69125 -1.20375,-2.69125 -1.19126,0 -1.27626,1.30375 -1.27626,2.5075 l 0,3.08875 z m -0.56626,-5.59625 c 0.66625,-0.865 1.34625,-1.30375 2.5075,-1.30375 2.28125,0 2.87626,1.8275 2.87626,4.02375 0,2.55 -1.16125,4.2925 -3.81124,4.2925 -0.3825,0 -0.77875,-0.0425 -1.00626,-0.085 l 0,2.32375 -2.28125,0 0,-10.4425 1.375,0 0.33999,1.19125"
       id="path86"
       style="fill:#7cc14f;fill-opacity:1;fill-rule:nonzero;stroke:none" />
    <path
       d="m 415.46627,665.07535 2.29541,0 0,-10.95166 -2.29541,0 0,10.95166 z"
       id="path88"
       style="fill:#7cc14f;fill-opacity:1;fill-rule:nonzero;stroke:none" />
    <path
       d="m 422.28253,658.13285 c -1.26124,0 -1.35999,1.53 -1.35999,2.70625 0,1.20375 0.0563,3.04625 1.35999,3.04625 1.3025,0 1.37374,-1.64375 1.37374,-3.04625 0,-1.09125 -0.16999,-2.70625 -1.37374,-2.70625 z m 0,7.05625 c -2.76376,0 -3.7125,-1.89875 -3.7125,-4.3075 0,-2.38125 1.29,-4.0525 3.74126,-4.0525 2.53624,0 3.69749,1.68625 3.69749,4.10875 0,2.53625 -1.17624,4.25125 -3.72625,4.25125"
       id="path90"
       style="fill:#7cc14f;fill-opacity:1;fill-rule:nonzero;stroke:none" />
    <path
       d="m 433.23628,656.9416 -2.3525,8.1475 c -0.45374,1.55875 -1.30375,2.3375 -2.86249,2.3375 -0.58126,0 -1.13252,-0.085 -1.53,-0.17 l 0,-1.28875 c 0.3825,0.0987 0.83624,0.155 1.2475,0.155 0.77875,0 1.08999,-0.31125 1.34499,-1.0475 l -0.94875,0 -2.2525,-8.13375 2.38,0 1.445,5.95125 1.52999,-5.95125 1.99874,0"
       id="path92"
       style="fill:#7cc14f;fill-opacity:1;fill-rule:nonzero;stroke:none" />
    <path
       d="m 440.27879,660.3291 c 0,-1.00625 -0.085,-2.19625 -1.03375,-2.19625 -1.02001,0 -1.14751,1.19 -1.19,2.19625 l 2.22375,0 z m 1.89875,4.49125 c -0.73626,0.22625 -1.64376,0.36875 -2.56376,0.36875 -2.76375,0 -3.91125,-1.5875 -3.91125,-4.195 0,-2.23875 1.16125,-4.165 3.6275,-4.165 2.89,0 3.20126,2.45125 3.20126,4.70375 l -4.4625,0 c 0,1.34625 0.4675,2.3525 1.96875,2.3525 0.61,0 1.38875,-0.1425 2.14,-0.355 l 0,1.29"
       id="path94"
       style="fill:#7cc14f;fill-opacity:1;fill-rule:nonzero;stroke:none" />
    <path
       d="m 449.80128,656.9416 -2.4375,8.13375 -2.57875,0 -2.3225,-8.13375 2.36624,0 1.44376,6.07875 1.53125,-6.07875 1.9975,0"
       id="path96"
       style="fill:#7cc14f;fill-opacity:1;fill-rule:nonzero;stroke:none" />
    <path
       d="m 454.20879,660.3291 c 0,-1.00625 -0.085,-2.19625 -1.03501,-2.19625 -1.01999,0 -1.1475,1.19 -1.19,2.19625 l 2.22501,0 z m 1.89875,4.49125 c -0.7375,0.22625 -1.64375,0.36875 -2.565,0.36875 -2.76251,0 -3.91001,-1.5875 -3.91001,-4.195 0,-2.23875 1.16126,-4.165 3.62626,-4.165 2.89125,0 3.2025,2.45125 3.2025,4.70375 l -4.46375,0 c 0,1.34625 0.46875,2.3525 1.97,2.3525 0.60875,0 1.38875,-0.1425 2.14,-0.355 l 0,1.29"
       id="path98"
       style="fill:#7cc14f;fill-opacity:1;fill-rule:nonzero;stroke:none" />
    <path
       d="m 458.94252,658.28785 c 0.52376,-1.0475 1.31626,-1.41625 2.45,-1.41625 0.10001,0 0.21249,0 0.32625,0.0138 l 0,1.72875 c -0.19875,-0.0288 -0.41,-0.0288 -0.6225,-0.0288 -1.14875,0 -1.61624,0.35375 -1.61624,1.65875 l 0,4.83125 -2.28125,0 0,-8.13375 1.375,0 0.36874,1.34625"
       id="path100"
       style="fill:#7cc14f;fill-opacity:1;fill-rule:nonzero;stroke:none" />
    <path
       d="m 469.11504,656.9416 -2.35125,8.1475 c -0.45375,1.55875 -1.30376,2.3375 -2.8625,2.3375 -0.58126,0 -1.13376,-0.085 -1.53,-0.17 l 0,-1.28875 c 0.3825,0.0987 0.83625,0.155 1.24625,0.155 0.77999,0 1.09125,-0.31125 1.34625,-1.0475 l -0.94876,0 -2.25376,-8.13375 2.38,0 1.44626,5.95125 1.52999,-5.95125 1.9975,0"
       id="path102"
       style="fill:#7cc14f;fill-opacity:1;fill-rule:nonzero;stroke:none" />
    <path
       d="m 481.34377,656.9416 -2.26625,8.13375 -2.50875,0 -1.4025,-5.71 -1.45875,5.71 -2.5225,0 -2.1825,-8.13375 2.3525,0 1.3175,6.12125 1.51626,-6.12125 2.35125,0 1.43124,6.12125 1.40375,-6.12125 1.96875,0"
       id="path104"
       style="fill:#7cc14f;fill-opacity:1;fill-rule:nonzero;stroke:none" />
    <path
       d="m 488.69878,665.07535 -2.28125,0 0,-5.455 c 0,-0.8075 -0.14125,-1.4875 -0.97751,-1.4875 -1.07624,0 -1.33249,1.105 -1.33249,2.05375 l 0,4.88875 -2.28001,0 0,-10.9525 2.28001,0 0,3.47125 c 0.55374,-0.52375 1.14875,-0.765 1.95624,-0.765 1.77125,0 2.63501,0.9775 2.63501,2.6775 l 0,5.56875"
       id="path106"
       style="fill:#7cc14f;fill-opacity:1;fill-rule:nonzero;stroke:none" />
    <path
       d="m 494.01253,660.3291 c 0,-1.00625 -0.085,-2.19625 -1.03375,-2.19625 -1.01999,0 -1.14749,1.19 -1.19,2.19625 l 2.22375,0 z m 1.89875,4.49125 c -0.73624,0.22625 -1.64374,0.36875 -2.56374,0.36875 -2.7625,0 -3.91125,-1.5875 -3.91125,-4.195 0,-2.23875 1.1625,-4.165 3.6275,-4.165 2.89,0 3.2025,2.45125 3.2025,4.70375 l -4.46375,0 c 0,1.34625 0.46749,2.3525 1.97,2.3525 0.60875,0 1.38874,-0.1425 2.13875,-0.355 l 0,1.29"
       id="path108"
       style="fill:#7cc14f;fill-opacity:1;fill-rule:nonzero;stroke:none" />
    <path
       d="m 498.74628,658.28785 c 0.52375,-1.0475 1.3175,-1.41625 2.45125,-1.41625 0.0988,0 0.2125,0 0.32626,0.0138 l 0,1.72875 c -0.19876,-0.0288 -0.41127,-0.0288 -0.62376,-0.0288 -1.1475,0 -1.615,0.35375 -1.615,1.65875 l 0,4.83125 -2.28125,0 0,-8.13375 1.37374,0 0.36874,1.34625"
       id="path110"
       style="fill:#7cc14f;fill-opacity:1;fill-rule:nonzero;stroke:none" />
    <path
       d="m 505.94502,660.3291 c 0,-1.00625 -0.085,-2.19625 -1.035,-2.19625 -1.02,0 -1.1475,1.19 -1.19,2.19625 l 2.225,0 z m 1.8975,4.49125 c -0.73625,0.22625 -1.6425,0.36875 -2.56374,0.36875 -2.7625,0 -3.91125,-1.5875 -3.91125,-4.195 0,-2.23875 1.1625,-4.165 3.6275,-4.165 2.89125,0 3.2025,2.45125 3.2025,4.70375 l -4.4625,0 c 0,1.34625 0.46625,2.3525 1.96875,2.3525 0.60874,0 1.38875,-0.1425 2.13875,-0.355 l 0,1.29"
       id="path112"
       style="fill:#7cc14f;fill-opacity:1;fill-rule:nonzero;stroke:none" />
    <path
       d="m 510.04003,662.42535 c 0.77998,0 1.38875,0.5525 1.38875,1.375 0,0.82125 -0.60875,1.38875 -1.38875,1.38875 -0.77876,0 -1.375,-0.5675 -1.375,-1.38875 0,-0.8225 0.59624,-1.375 1.375,-1.375"
       id="path114"
       style="fill:#7cc14f;fill-opacity:1;fill-rule:nonzero;stroke:none" />
  </g>
</svg>
